<svg xmlns="http://www.w3.org/2000/svg" xmlns:xlink="http://www.w3.org/1999/xlink" width="100" zoomAndPan="magnify" viewBox="0 0 75 74.999997" height="100" preserveAspectRatio="xMidYMid meet" version="1.0"><path fill="#1d9bf0" d="M 65.625 75 L 9.375 75 C 4.199219 75 0 70.800781 0 65.625 L 0 9.375 C 0 4.199219 4.199219 0 9.375 0 L 65.625 0 C 70.800781 0 75 4.199219 75 9.375 L 75 65.625 C 75 70.800781 70.800781 75 65.625 75 Z M 65.625 75 " fill-opacity="1" fill-rule="nonzero"/><path fill="#ffffff" d="M 28.800781 56.550781 C 46.480469 56.550781 56.15625 41.886719 56.15625 29.195312 C 56.15625 28.78125 56.15625 28.367188 56.136719 27.957031 C 58.011719 26.605469 59.644531 24.898438 60.9375 22.96875 C 59.210938 23.738281 57.355469 24.242188 55.40625 24.488281 C 57.394531 23.304688 58.914062 21.414062 59.644531 19.164062 C 57.789062 20.269531 55.726562 21.054688 53.53125 21.488281 C 51.769531 19.613281 49.273438 18.449219 46.519531 18.449219 C 41.210938 18.449219 36.898438 22.761719 36.898438 28.070312 C 36.898438 28.820312 36.992188 29.550781 37.144531 30.261719 C 29.15625 29.867188 22.070312 26.023438 17.324219 20.210938 C 16.5 21.636719 16.03125 23.289062 16.03125 25.050781 C 16.03125 28.386719 17.738281 31.332031 20.304688 33.054688 C 18.730469 33 17.25 32.570312 15.957031 31.855469 C 15.957031 31.894531 15.957031 31.929688 15.957031 31.988281 C 15.957031 36.636719 19.273438 40.539062 23.664062 41.417969 C 22.855469 41.644531 22.011719 41.757812 21.132812 41.757812 C 20.511719 41.757812 19.914062 41.699219 19.332031 41.585938 C 20.550781 45.414062 24.113281 48.1875 28.3125 48.261719 C 25.011719 50.851562 20.867188 52.386719 16.367188 52.386719 C 15.601562 52.386719 14.832031 52.351562 14.082031 52.257812 C 18.320312 54.957031 23.382812 56.550781 28.800781 56.550781 " fill-opacity="1" fill-rule="nonzero"/></svg>