<svg xmlns="http://www.w3.org/2000/svg" xmlns:xlink="http://www.w3.org/1999/xlink" width="100" zoomAndPan="magnify" viewBox="0 0 75 74.999997" height="100" preserveAspectRatio="xMidYMid meet" version="1.0"><defs><clipPath id="b282beb7a3"><path d="M 7.5 0 L 67.5 0 C 69.488281 0 71.398438 0.789062 72.804688 2.195312 C 74.210938 3.601562 75 5.511719 75 7.5 L 75 67.5 C 75 69.488281 74.210938 71.398438 72.804688 72.804688 C 71.398438 74.210938 69.488281 75 67.5 75 L 7.5 75 C 5.511719 75 3.601562 74.210938 2.195312 72.804688 C 0.789062 71.398438 0 69.488281 0 67.5 L 0 7.5 C 0 5.511719 0.789062 3.601562 2.195312 2.195312 C 3.601562 0.789062 5.511719 0 7.5 0 " clip-rule="nonzero"/></clipPath><clipPath id="b96261c0e7"><path d="M 12.128906 12.128906 L 63.128906 12.128906 L 63.128906 63.128906 L 12.128906 63.128906 Z M 12.128906 12.128906 " clip-rule="nonzero"/></clipPath></defs><g clip-path="url(#b282beb7a3)"><path fill="#00bf63" d="M 0 0 L 74.882812 0 L 74.882812 74.882812 L 0 74.882812 Z M 0 0 " fill-opacity="1" fill-rule="nonzero"/></g><g clip-path="url(#b96261c0e7)"><path fill="#ffffff" d="M 25.53125 54.179688 L 27.375 55.257812 C 30.542969 57.105469 33.964844 58.027344 37.632812 58.019531 C 48.898438 58.019531 58.027344 48.886719 58.027344 37.625 C 58.027344 26.359375 48.898438 17.226562 37.632812 17.226562 C 26.367188 17.226562 17.234375 26.359375 17.234375 37.625 C 17.226562 41.292969 18.148438 44.714844 20 47.882812 L 21.074219 49.730469 L 19.410156 55.847656 Z M 12.148438 63.121094 L 15.59375 50.457031 C 14.457031 48.507812 13.597656 46.449219 13.011719 44.269531 C 12.421875 42.09375 12.132812 39.878906 12.136719 37.625 C 12.136719 23.542969 23.550781 12.128906 37.632812 12.128906 C 51.714844 12.128906 63.128906 23.542969 63.128906 37.625 C 63.128906 51.703125 51.714844 63.121094 37.632812 63.121094 C 35.378906 63.125 33.164062 62.832031 30.988281 62.246094 C 28.816406 61.660156 26.753906 60.800781 24.808594 59.664062 Z M 28.429688 25.660156 C 28.773438 25.636719 29.117188 25.632812 29.457031 25.652344 C 29.597656 25.660156 29.734375 25.675781 29.871094 25.691406 C 30.277344 25.738281 30.722656 25.984375 30.875 26.328125 C 31.632812 28.050781 32.371094 29.785156 33.082031 31.527344 C 33.242188 31.914062 33.148438 32.414062 32.847656 32.898438 C 32.640625 33.222656 32.414062 33.539062 32.175781 33.84375 C 31.886719 34.214844 31.265625 34.894531 31.265625 34.894531 C 31.109375 35.09375 31.058594 35.320312 31.113281 35.570312 C 31.175781 35.753906 31.261719 35.929688 31.371094 36.089844 L 31.523438 36.332031 C 32.25 37.523438 33.117188 38.597656 34.125 39.5625 C 34.429688 39.859375 34.726562 40.164062 35.046875 40.445312 C 36.25 41.503906 37.582031 42.355469 39.050781 42.996094 L 39.0625 43 C 39.28125 43.09375 39.390625 43.144531 39.707031 43.28125 C 39.863281 43.347656 40.027344 43.40625 40.195312 43.449219 C 40.367188 43.496094 40.542969 43.488281 40.710938 43.425781 C 40.882812 43.367188 41.019531 43.261719 41.128906 43.117188 C 42.972656 40.882812 43.144531 40.738281 43.15625 40.738281 L 43.15625 40.746094 C 43.429688 40.488281 43.75 40.382812 44.121094 40.421875 C 44.277344 40.429688 44.429688 40.460938 44.574219 40.523438 C 45.925781 41.140625 48.140625 42.109375 48.140625 42.109375 L 49.625 42.773438 C 49.875 42.894531 50.101562 43.175781 50.109375 43.449219 C 50.128906 43.765625 50.121094 44.085938 50.078125 44.402344 C 49.992188 45.0625 49.796875 45.855469 49.597656 46.269531 C 49.460938 46.554688 49.28125 46.8125 49.0625 47.039062 C 48.804688 47.3125 48.523438 47.554688 48.222656 47.773438 C 48.117188 47.855469 48.011719 47.929688 47.902344 48.003906 C 47.585938 48.207031 47.261719 48.390625 46.925781 48.566406 C 46.261719 48.917969 45.554688 49.113281 44.800781 49.152344 C 44.328125 49.1875 43.855469 49.199219 43.382812 49.1875 C 43.363281 49.1875 41.9375 48.964844 41.9375 48.964844 C 38.265625 48 35 46.257812 32.148438 43.75 C 31.574219 43.238281 31.039062 42.695312 30.496094 42.152344 C 28.226562 39.894531 26.511719 37.460938 25.472656 35.160156 C 24.933594 34.019531 24.652344 32.816406 24.628906 31.554688 C 24.617188 29.964844 25.097656 28.535156 26.066406 27.273438 C 26.265625 26.996094 26.488281 26.734375 26.734375 26.496094 C 27.054688 26.1875 27.261719 26.027344 27.480469 25.914062 C 27.78125 25.765625 28.09375 25.679688 28.429688 25.660156 Z M 28.429688 25.660156 " fill-opacity="1" fill-rule="nonzero"/></g></svg>